# xmcd
#
# Track frame offsets:
#	182
#	16760
#	38805
#	55842
#	73292
#	95890
#	117102
#	139100
#	156025
#	175352
#	192525
#	213247
#	230832
#	249835
#	268885
#	290557
#	310435
#	327505
#
# Disc length: 4628 seconds
#
# Revision: 42
# Processed by: cddbd v1.5.2PL0 Copyright (c) Steve Scherf et al.
# Submitted via: audiograbber 1.83.01
#
DISCID=17121212
DTITLE=Eurythmics (Greatest Hits) - Greatest Hits
DYEAR=1991
DGENRE=New Age
TTITLE0=Love is a stranger
TTITLE1=Sweet dreams (are made of this)
TTITLE2=Who's that girl?
TTITLE3=Right by your side
TTITLE4=Here comes the rain again
TTITLE5=There must be an angel (playing with my heart)
TTITLE6=Sisters are doin' it for themselves
TTITLE7=It's alright (baby's coming back)
TTITLE8=When tomorrow comes
TTITLE9=You have placed a chill in my heart
TTITLE10=Miracle of love
TTITLE11=Sex crime (1984)
TTITLE12=Thorn in my side
TTITLE13=Don't ask me why
TTITLE14=Angel
TTITLE15=Would i lie to you?
TTITLE16=Missionary man
TTITLE17=I need a man
EXTD=YEAR: 1991
EXTT0=
EXTT1=
EXTT2=
EXTT3=
EXTT4=
EXTT5=
EXTT6=
EXTT7=
EXTT8=
EXTT9=
EXTT10=
EXTT11=
EXTT12=
EXTT13=
EXTT14=
EXTT15=
EXTT16=
EXTT17=
PLAYORDER=
